<?xml version="1.0" encoding="UTF-8"?>
<!DOCTYPE svg PUBLIC "-//W3C//DTD SVG 1.1//EN" "http://www.w3.org/Graphics/SVG/1.1/DTD/svg11.dtd">
<svg xmlns="http://www.w3.org/2000/svg" version="1.1" width="188px" height="188px" style="shape-rendering:geometricPrecision; text-rendering:geometricPrecision; image-rendering:optimizeQuality; fill-rule:evenodd; clip-rule:evenodd" xmlns:xlink="http://www.w3.org/1999/xlink">
<g><path style="opacity:0.243" fill="#d6e5d1" d="M 110.5,21.5 C 100.88,19.5029 91.213,19.1696 81.5,20.5C 70.7068,22.9806 61.2068,27.9806 53,35.5C 49.236,40.0559 45.736,44.7225 42.5,49.5C 49.5692,34.9421 60.9025,25.1088 76.5,20C 82.1547,19.0848 87.8214,18.2515 93.5,17.5C 99.4713,18.0978 105.138,19.4311 110.5,21.5 Z"/></g>
<g><path style="opacity:1" fill="#63b647" d="M 110.5,21.5 C 115.707,24.4597 120.707,27.9597 125.5,32C 123.847,36.5324 120.847,38.0324 116.5,36.5C 113.705,33.7691 110.372,32.1025 106.5,31.5C 104.562,29.8372 102.228,29.1706 99.5,29.5C 99.0825,28.7784 98.4158,28.2784 97.5,28C 90.1566,27.8484 82.9899,26.6817 76,24.5C 74.3435,25.4841 72.6768,26.4841 71,27.5C 70.5521,25.5911 71.3855,24.4244 73.5,24C 76.146,23.5026 78.8127,23.3359 81.5,23.5C 81.5,22.5 81.5,21.5 81.5,20.5C 91.213,19.1696 100.88,19.5029 110.5,21.5 Z"/></g>
<g><path style="opacity:0.055" fill="#cbe0c3" d="M 110.5,21.5 C 116.795,23.0636 122.295,26.0636 127,30.5C 126.912,33.6422 125.412,36.1422 122.5,38C 120.011,38.9411 118.011,38.4411 116.5,36.5C 120.847,38.0324 123.847,36.5324 125.5,32C 120.707,27.9597 115.707,24.4597 110.5,21.5 Z"/></g>
<g><path style="opacity:0.153" fill="#bed5b5" d="M 84.5,29.5 C 82.4855,30.9238 80.1522,31.5905 77.5,31.5C 79.4385,29.8372 81.7718,29.1706 84.5,29.5 Z"/></g>
<g><path style="opacity:0.29" fill="#c0d8b5" d="M 99.5,29.5 C 102.228,29.1706 104.562,29.8372 106.5,31.5C 103.848,31.5905 101.515,30.9238 99.5,29.5 Z"/></g>
<g><path style="opacity:0.337" fill="#bed8b4" d="M 77.5,31.5 C 74.9433,33.6074 71.9433,34.9408 68.5,35.5C 70.8355,32.8352 73.8355,31.5018 77.5,31.5 Z"/></g>
<g><path style="opacity:0.063" fill="#c6d8bf" d="M 106.5,31.5 C 110.372,32.1025 113.705,33.7691 116.5,36.5C 112.817,35.3255 109.484,33.6588 106.5,31.5 Z"/></g>
<g><path style="opacity:1" fill="#65b64a" d="M 81.5,20.5 C 81.5,21.5 81.5,22.5 81.5,23.5C 78.8127,23.3359 76.146,23.5026 73.5,24C 71.3855,24.4244 70.5521,25.5911 71,27.5C 72.6768,26.4841 74.3435,25.4841 76,24.5C 82.9899,26.6817 90.1566,27.8484 97.5,28C 98.4158,28.2784 99.0825,28.7784 99.5,29.5C 94.5,29.5 89.5,29.5 84.5,29.5C 81.7718,29.1706 79.4385,29.8372 77.5,31.5C 73.8355,31.5018 70.8355,32.8352 68.5,35.5C 61.5672,39.2648 56.0672,44.5981 52,51.5C 49.5252,57.4232 47.6918,63.4232 46.5,69.5C 45.1965,67.7925 44.0298,66.1259 43,64.5C 42.6667,66.1667 42.3333,67.8333 42,69.5C 41.6667,68.8333 41.3333,68.1667 41,67.5C 39.6033,72.7081 39.1033,78.0414 39.5,83.5C 38.3448,76.3451 38.1782,69.0118 39,61.5C 40.4631,57.5774 41.6297,53.5774 42.5,49.5C 45.736,44.7225 49.236,40.0559 53,35.5C 61.2068,27.9806 70.7068,22.9806 81.5,20.5 Z"/></g>
<g><path style="opacity:1" fill="#64b648" d="M 145.5,60.5 C 147.872,72.3819 146.539,83.7153 141.5,94.5C 140.167,94.5 138.833,94.5 137.5,94.5C 137.657,95.8734 137.49,97.2068 137,98.5C 134.477,94.7603 133.977,90.7603 135.5,86.5C 135.5,85.1667 135.5,83.8333 135.5,82.5C 136.913,79.6177 137.579,76.4511 137.5,73C 136.667,67.5101 136.5,62.0101 137,56.5C 137.972,54.6951 139.139,53.0284 140.5,51.5C 142.734,54.2207 144.401,57.2207 145.5,60.5 Z"/></g>
<g><path style="opacity:1" fill="#62b647" d="M 46.5,69.5 C 46.0387,88.2472 53.7054,102.581 69.5,112.5C 69.4142,113.496 69.7476,114.329 70.5,115C 72.3839,115.216 74.0506,115.883 75.5,117C 75.1667,117.333 74.8333,117.667 74.5,118C 76.1261,117.805 77.7928,117.805 79.5,118C 78.8333,118.667 78.1667,119.333 77.5,120C 80.6057,120.844 83.439,120.344 86,118.5C 87.2247,118.862 88.3914,119.362 89.5,120C 88.8333,120.333 88.1667,120.667 87.5,121C 90.4816,121.498 93.4816,121.665 96.5,121.5C 96.5,122.5 96.5,123.5 96.5,124.5C 93.9175,125.564 89.2508,125.897 82.5,125.5C 78.5,124.833 74.5,124.167 70.5,123.5C 68.5182,120.863 65.8515,119.53 62.5,119.5C 60.5956,119.262 59.2623,118.262 58.5,116.5C 50.5252,109.223 44.5252,100.556 40.5,90.5C 40.0431,89.7025 39.3764,89.3691 38.5,89.5C 38.5,89.1667 38.5,88.8333 38.5,88.5C 39.4511,87.0813 39.7845,85.4147 39.5,83.5C 39.1033,78.0414 39.6033,72.7081 41,67.5C 41.3333,68.1667 41.6667,68.8333 42,69.5C 42.3333,67.8333 42.6667,66.1667 43,64.5C 44.0298,66.1259 45.1965,67.7925 46.5,69.5 Z"/></g>
<g><path style="opacity:0.173" fill="#d0e1c9" d="M 96.5,73.5 C 95.5407,76.293 93.7074,78.293 91,79.5C 84.218,74.3889 77.718,68.8889 71.5,63C 68.1508,62.6124 64.8175,62.7791 61.5,63.5C 61.9175,62.7784 62.5842,62.2784 63.5,62C 66.5,61.3333 69.5,61.3333 72.5,62C 78.6667,67.5 84.8333,73 91,78.5C 92.7498,76.576 94.5831,74.9093 96.5,73.5 Z"/></g>
<g><path style="opacity:1" fill="#61b645" d="M 96.5,73.5 C 97.8333,72.5 99.1667,71.5 100.5,70.5C 101.496,70.5858 102.329,70.2524 103,69.5C 103.333,70.1667 103.667,70.8333 104,71.5C 104.393,66.0983 107.06,64.4316 112,66.5C 113.365,66.1557 114.532,65.4891 115.5,64.5C 116.783,66.7301 117.783,69.0634 118.5,71.5C 111.523,83.9436 103.189,95.4436 93.5,106C 91.8333,106.667 90.1667,106.667 88.5,106C 87.5291,104.519 86.1958,103.685 84.5,103.5C 75.8182,92.854 66.6516,82.5207 57,72.5C 56.3333,70.8333 56.3333,69.1667 57,67.5C 58.6667,66.2668 60.1667,64.9335 61.5,63.5C 64.8175,62.7791 68.1508,62.6124 71.5,63C 77.718,68.8889 84.218,74.3889 91,79.5C 93.7074,78.293 95.5407,76.293 96.5,73.5 Z"/></g>
<g><path style="opacity:0.169" fill="#c5d9be" d="M 84.5,103.5 C 86.1958,103.685 87.5291,104.519 88.5,106C 90.1667,106.667 91.8333,106.667 93.5,106C 103.189,95.4436 111.523,83.9436 118.5,71.5C 130.053,56.0846 140.886,40.0846 151,23.5C 151.781,22.0563 151.614,20.723 150.5,19.5C 143.549,24.9481 137.049,30.9481 131,37.5C 120.628,48.37 110.461,59.37 100.5,70.5C 99.1667,71.5 97.8333,72.5 96.5,73.5C 112.24,55.5887 128.573,38.0887 145.5,21C 147.333,19.8333 149.167,18.6667 151,17.5C 153.055,18.672 153.722,20.3386 153,22.5C 136.745,48.6816 119.745,74.3482 102,99.5C 98.9148,103.093 95.4148,106.093 91.5,108.5C 88.3132,107.973 85.9799,106.307 84.5,103.5 Z"/></g>
<g><path style="opacity:1" fill="#63b647" d="M 118.5,71.5 C 117.783,69.0634 116.783,66.7301 115.5,64.5C 114.532,65.4891 113.365,66.1557 112,66.5C 107.06,64.4316 104.393,66.0983 104,71.5C 103.667,70.8333 103.333,70.1667 103,69.5C 102.329,70.2524 101.496,70.5858 100.5,70.5C 110.461,59.37 120.628,48.37 131,37.5C 137.049,30.9481 143.549,24.9481 150.5,19.5C 151.614,20.723 151.781,22.0563 151,23.5C 140.886,40.0846 130.053,56.0846 118.5,71.5 Z"/></g>
<g><path style="opacity:0.412" fill="#c6dbbf" d="M 145.5,60.5 C 144.401,57.2207 142.734,54.2207 140.5,51.5C 139.139,53.0284 137.972,54.6951 137,56.5C 136.5,62.0101 136.667,67.5101 137.5,73C 137.579,76.4511 136.913,79.6177 135.5,82.5C 135.454,74.1363 135.287,65.803 135,57.5C 140.756,46.6018 144.256,47.6018 145.5,60.5 Z"/></g>
<g><path style="opacity:0.706" fill="#bbd2b2" d="M 42.5,49.5 C 41.6297,53.5774 40.4631,57.5774 39,61.5C 38.1782,69.0118 38.3448,76.3451 39.5,83.5C 39.7845,85.4147 39.4511,87.0813 38.5,88.5C 35.7189,77.8061 35.8856,67.1394 39,56.5C 39.6701,53.8261 40.8368,51.4927 42.5,49.5 Z"/></g>
<g><path style="opacity:0.247" fill="#c2d5bc" d="M 145.5,60.5 C 150.732,83.6309 144.066,102.798 125.5,118C 122.09,120.372 118.423,122.205 114.5,123.5C 126.601,116.732 135.601,107.065 141.5,94.5C 146.539,83.7153 147.872,72.3819 145.5,60.5 Z"/></g>
<g><path style="opacity:0.263" fill="#d4ddd1" d="M 135.5,82.5 C 135.5,83.8333 135.5,85.1667 135.5,86.5C 134.687,88.2608 133.687,89.9275 132.5,91.5C 132.928,88.2154 133.928,85.2154 135.5,82.5 Z"/></g>
<g><path style="opacity:0.129" fill="#d0dfca" d="M 61.5,63.5 C 60.1667,64.9335 58.6667,66.2668 57,67.5C 56.3333,69.1667 56.3333,70.8333 57,72.5C 66.6516,82.5207 75.8182,92.854 84.5,103.5C 74.3391,94.223 64.8391,84.223 56,73.5C 53.5995,68.029 55.4329,64.6957 61.5,63.5 Z"/></g>
<g><path style="opacity:1" fill="#65b64a" d="M 135.5,86.5 C 133.977,90.7603 134.477,94.7603 137,98.5C 137.49,97.2068 137.657,95.8734 137.5,94.5C 138.833,94.5 140.167,94.5 141.5,94.5C 135.601,107.065 126.601,116.732 114.5,123.5C 110.786,123.59 107.452,124.59 104.5,126.5C 96.9809,126.825 89.6476,126.492 82.5,125.5C 89.2508,125.897 93.9175,125.564 96.5,124.5C 96.5,123.5 96.5,122.5 96.5,121.5C 93.4816,121.665 90.4816,121.498 87.5,121C 88.1667,120.667 88.8333,120.333 89.5,120C 88.3914,119.362 87.2247,118.862 86,118.5C 83.439,120.344 80.6057,120.844 77.5,120C 78.1667,119.333 78.8333,118.667 79.5,118C 77.7928,117.805 76.1261,117.805 74.5,118C 74.8333,117.667 75.1667,117.333 75.5,117C 74.0506,115.883 72.3839,115.216 70.5,115C 69.7476,114.329 69.4142,113.496 69.5,112.5C 71.9128,114.051 74.5794,114.717 77.5,114.5C 87.6074,118.318 97.9407,118.485 108.5,115C 110.584,114.303 112.251,113.136 113.5,111.5C 119.259,109.265 124.092,105.599 128,100.5C 128.953,98.5448 130.287,96.8782 132,95.5C 132.49,94.2068 132.657,92.8734 132.5,91.5C 133.687,89.9275 134.687,88.2608 135.5,86.5 Z"/></g>
<g><path style="opacity:0.22" fill="#d4e4cb" d="M 132.5,91.5 C 132.657,92.8734 132.49,94.2068 132,95.5C 130.287,96.8782 128.953,98.5448 128,100.5C 124.092,105.599 119.259,109.265 113.5,111.5C 121.211,106.123 127.545,99.456 132.5,91.5 Z"/></g>
<g><path style="opacity:0.278" fill="#cadac5" d="M 38.5,89.5 C 39.3764,89.3691 40.0431,89.7025 40.5,90.5C 44.5252,100.556 50.5252,109.223 58.5,116.5C 48.8406,109.824 42.1739,100.824 38.5,89.5 Z"/></g>
<g><path style="opacity:0.224" fill="#c7d9bf" d="M 68.5,35.5 C 46.4548,53.5595 42.6215,74.8928 57,99.5C 62.6057,106.366 69.439,111.366 77.5,114.5C 74.5794,114.717 71.9128,114.051 69.5,112.5C 53.7054,102.581 46.0387,88.2472 46.5,69.5C 47.6918,63.4232 49.5252,57.4232 52,51.5C 56.0672,44.5981 61.5672,39.2648 68.5,35.5 Z"/></g>
<g><path style="opacity:0.039" fill="#dde6db" d="M 113.5,111.5 C 112.251,113.136 110.584,114.303 108.5,115C 97.9407,118.485 87.6074,118.318 77.5,114.5C 89.8887,117.801 101.889,116.801 113.5,111.5 Z"/></g>
<g><path style="opacity:0.682" fill="#b6d4aa" d="M 62.5,119.5 C 65.8515,119.53 68.5182,120.863 70.5,123.5C 67.5035,122.73 64.8368,121.396 62.5,119.5 Z"/></g>
<g><path style="opacity:0.165" fill="#cde0c7" d="M 29.5,123.5 C 26.0078,126.842 22.1745,129.842 18,132.5C 18.4782,127.836 19.3115,123.169 20.5,118.5C 18.5328,118.261 16.6995,118.594 15,119.5C 12.0808,128.092 9.24749,136.758 6.5,145.5C 7.0728,148.085 8.73947,149.085 11.5,148.5C 8.35095,150.229 6.01762,149.395 4.5,146C 7.53372,136.771 10.7004,127.604 14,118.5C 17.8814,115.513 20.7147,116.347 22.5,121C 21.0261,123.744 20.1927,126.577 20,129.5C 22.8016,126.854 25.9683,124.854 29.5,123.5 Z"/></g>
<g><path style="opacity:0.545" fill="#aed2a2" d="M 70.5,123.5 C 74.5,124.167 78.5,124.833 82.5,125.5C 89.6476,126.492 96.9809,126.825 104.5,126.5C 96.6775,127.656 88.6775,127.823 80.5,127C 76.7821,126.627 73.4488,125.461 70.5,123.5 Z"/></g>
<g><path style="opacity:0.451" fill="#bbd7b3" d="M 114.5,123.5 C 111.495,125.277 108.162,126.277 104.5,126.5C 107.452,124.59 110.786,123.59 114.5,123.5 Z"/></g>
<g><path style="opacity:0.094" fill="#c9dcc2" d="M 25.5,143.5 C 23.3622,140.913 22.5289,137.913 23,134.5C 27.931,132.055 32.431,129.055 36.5,125.5C 36.2907,124.914 35.9574,124.414 35.5,124C 33.5273,123.505 31.5273,123.338 29.5,123.5C 33.075,120.79 36.075,121.457 38.5,125.5C 37.9904,127.088 36.9904,128.255 35.5,129C 31.3318,131.25 27.3318,133.75 23.5,136.5C 24.5771,138.729 25.2437,141.063 25.5,143.5 Z"/></g>
<g><path style="opacity:0.216" fill="#cbdac5" d="M 154.5,138.5 C 152.865,134.336 151.365,130.002 150,125.5C 148.333,124.167 146.667,124.167 145,125.5C 145.533,132.661 147.033,139.661 149.5,146.5C 149.62,149.622 148.287,151.622 145.5,152.5C 146.97,150.841 147.637,148.841 147.5,146.5C 145.36,139.304 144.193,131.971 144,124.5C 146.333,123.167 148.667,123.167 151,124.5C 152.797,129.023 153.964,133.69 154.5,138.5 Z"/></g>
<g><path style="opacity:1" fill="#6cb852" d="M 154.5,138.5 C 154.5,138.833 154.5,139.167 154.5,139.5C 158.021,149.793 154.687,156.46 144.5,159.5C 142.389,160.742 140.389,160.742 138.5,159.5C 137.699,157.958 137.366,156.292 137.5,154.5C 139.857,154.663 142.19,154.497 144.5,154C 145.056,153.617 145.389,153.117 145.5,152.5C 148.287,151.622 149.62,149.622 149.5,146.5C 147.033,139.661 145.533,132.661 145,125.5C 146.667,124.167 148.333,124.167 150,125.5C 151.365,130.002 152.865,134.336 154.5,138.5 Z"/></g>
<g><path style="opacity:0.02" fill="#c5d7bf" d="M 167.5,132.5 C 166.909,133.151 166.243,133.818 165.5,134.5C 169.459,135.327 173.459,135.827 177.5,136C 178.381,136.708 179.047,137.542 179.5,138.5C 177.443,137.108 175.109,136.441 172.5,136.5C 169.814,137.012 167.147,137.179 164.5,137C 162.839,133.85 163.839,132.35 167.5,132.5 Z"/></g>
<g><path style="opacity:0.208" fill="#c2d6bb" d="M 23.5,154.5 C 22.5041,154.586 21.6708,154.252 21,153.5C 19.3333,148.833 17.6667,144.167 16,139.5C 14.9535,142.859 13.4535,145.859 11.5,148.5C 12.309,143.906 13.809,139.572 16,135.5C 18.6045,141.818 21.1045,148.151 23.5,154.5 Z"/></g>
<g><path style="opacity:1" fill="#67b64c" d="M 29.5,123.5 C 31.5273,123.338 33.5273,123.505 35.5,124C 35.9574,124.414 36.2907,124.914 36.5,125.5C 32.431,129.055 27.931,132.055 23,134.5C 22.5289,137.913 23.3622,140.913 25.5,143.5C 26.1667,147.167 26.8333,150.833 27.5,154.5C 26.1667,154.5 24.8333,154.5 23.5,154.5C 21.1045,148.151 18.6045,141.818 16,135.5C 13.809,139.572 12.309,143.906 11.5,148.5C 8.73947,149.085 7.0728,148.085 6.5,145.5C 9.24749,136.758 12.0808,128.092 15,119.5C 16.6995,118.594 18.5328,118.261 20.5,118.5C 19.3115,123.169 18.4782,127.836 18,132.5C 22.1745,129.842 26.0078,126.842 29.5,123.5 Z"/></g>
<g><path style="opacity:0.11" fill="#e5efdd" d="M 50.5,135.5 C 53.204,135.67 54.8707,137.003 55.5,139.5C 53.246,138.876 51.5794,137.543 50.5,135.5 Z"/></g>
<g><path style="opacity:0.62" fill="#cce1c4" d="M 130.5,142.5 C 129.373,141.878 128.373,141.045 127.5,140C 122.442,138.99 117.609,139.49 113,141.5C 112.517,142.448 112.351,143.448 112.5,144.5C 114.167,144.5 115.833,144.5 117.5,144.5C 114.547,147.505 112.214,147.172 110.5,143.5C 111.87,139.968 114.536,138.135 118.5,138C 121.167,137.333 123.833,137.333 126.5,138C 128.751,138.748 130.084,140.248 130.5,142.5 Z"/></g>
<g><path style="opacity:0.227" fill="#d6e5d0" d="M 82.5,142.5 C 81.391,142.443 80.391,142.11 79.5,141.5C 75.6039,139.868 71.9373,140.202 68.5,142.5C 67.573,140.054 65.9063,139.221 63.5,140C 62.387,144.733 61.7204,149.566 61.5,154.5C 60.5318,156.607 60.1984,158.941 60.5,161.5C 59.6432,154.014 60.3099,146.514 62.5,139C 65.025,138.104 67.1917,138.604 69,140.5C 74.1029,137.489 78.6029,138.156 82.5,142.5 Z"/></g>
<g><path style="opacity:0.196" fill="#d3e4cd" d="M 41.5,135.5 C 38.4531,137.918 36.1198,140.918 34.5,144.5C 34.688,139.775 37.0214,136.775 41.5,135.5 Z"/></g>
<g><path style="opacity:1" fill="#70b957" d="M 50.5,135.5 C 51.5794,137.543 53.246,138.876 55.5,139.5C 56.3439,143.099 56.6773,146.766 56.5,150.5C 51.1779,150.02 45.8446,149.687 40.5,149.5C 40.3832,151.484 41.0499,153.15 42.5,154.5C 45.4281,155.484 48.4281,155.817 51.5,155.5C 51.5,156.833 51.5,158.167 51.5,159.5C 44.3785,160.09 38.7119,157.757 34.5,152.5C 33.1667,149.833 33.1667,147.167 34.5,144.5C 36.1198,140.918 38.4531,137.918 41.5,135.5C 44.3962,134.225 47.3962,134.225 50.5,135.5 Z M 43.5,141.5 C 46.5959,140.907 48.9292,141.907 50.5,144.5C 48.4476,144.705 46.1143,144.705 43.5,144.5C 43.5,143.5 43.5,142.5 43.5,141.5 Z"/></g>
<g><path style="opacity:0.035" fill="#dde7da" d="M 99.5,145.5 C 101.167,145.5 102.833,145.5 104.5,145.5C 104.275,141.2 101.941,139.534 97.5,140.5C 93.4606,140.19 90.1273,141.523 87.5,144.5C 89.3453,140.243 92.6787,138.576 97.5,139.5C 99.5,139.667 101.5,139.833 103.5,140C 106.195,141.416 106.861,143.416 105.5,146C 103.288,146.789 101.288,146.622 99.5,145.5 Z"/></g>
<g><path style="opacity:0.078" fill="#c8dcc0" d="M 167.5,132.5 C 169.214,131.262 171.214,130.595 173.5,130.5C 173.5,129.5 173.5,128.5 173.5,127.5C 169.208,127.035 165.208,127.868 161.5,130C 157.607,133.588 157.607,137.254 161.5,141C 165.821,141.499 170.154,141.666 174.5,141.5C 174.714,143.144 174.38,144.644 173.5,146C 170.312,147.316 166.978,147.816 163.5,147.5C 166.761,146.164 170.094,144.831 173.5,143.5C 169.204,142.672 164.871,142.172 160.5,142C 155.541,135.357 156.875,130.357 164.5,127C 166.649,126.421 168.815,125.921 171,125.5C 175.612,126.342 176.446,128.509 173.5,132C 171.527,132.495 169.527,132.662 167.5,132.5 Z"/></g>
<g><path style="opacity:1" fill="#69b74f" d="M 130.5,142.5 C 131.094,148.51 131.76,154.51 132.5,160.5C 130.234,160.859 128.401,160.192 127,158.5C 123.604,162.203 119.437,163.369 114.5,162C 112.607,159.083 112.107,155.916 113,152.5C 114.707,150.963 116.207,149.296 117.5,147.5C 117.833,147.5 118.167,147.5 118.5,147.5C 120.199,147.66 121.866,147.494 123.5,147C 124.731,145.817 124.731,144.651 123.5,143.5C 122.893,143.624 122.56,143.957 122.5,144.5C 120.833,144.5 119.167,144.5 117.5,144.5C 115.833,144.5 114.167,144.5 112.5,144.5C 112.351,143.448 112.517,142.448 113,141.5C 117.609,139.49 122.442,138.99 127.5,140C 128.373,141.045 129.373,141.878 130.5,142.5 Z M 123.5,151.5 C 124.494,152.999 124.494,154.666 123.5,156.5C 121.883,157.038 120.216,157.371 118.5,157.5C 118.749,154.256 120.416,152.256 123.5,151.5 Z"/></g>
<g><path style="opacity:0.18" fill="#b9d1b0" d="M 79.5,141.5 C 80.391,142.11 81.391,142.443 82.5,142.5C 83.7654,149.745 83.4321,156.912 81.5,164C 79.2305,164.758 77.0639,164.591 75,163.5C 74.4639,159.151 74.6305,154.818 75.5,150.5C 75.0566,144.742 72.8899,144.075 69,148.5C 68.3333,153.167 67.6667,157.833 67,162.5C 64.4485,164.02 62.2818,163.687 60.5,161.5C 60.1984,158.941 60.5318,156.607 61.5,154.5C 61.5,156.833 61.5,159.167 61.5,161.5C 63.1667,161.5 64.8333,161.5 66.5,161.5C 66.0903,156.327 66.757,151.327 68.5,146.5C 70.5364,144.655 72.8697,144.155 75.5,145C 76.4764,151.076 76.8097,157.242 76.5,163.5C 77.8333,163.5 79.1667,163.5 80.5,163.5C 82.1527,155.969 81.8194,148.636 79.5,141.5 Z"/></g>
<g><path style="opacity:0.184" fill="#c2dab9" d="M 43.5,139.5 C 49.3335,138.337 52.0002,140.671 51.5,146.5C 48.1606,146.11 44.8273,145.61 41.5,145C 41.0426,144.586 40.7093,144.086 40.5,143.5C 41.5244,142.148 42.5244,140.815 43.5,139.5 Z M 43.5,141.5 C 43.5,142.5 43.5,143.5 43.5,144.5C 46.1143,144.705 48.4476,144.705 50.5,144.5C 48.9292,141.907 46.5959,140.907 43.5,141.5 Z"/></g>
<g><path style="opacity:0.259" fill="#c5d8be" d="M 179.5,138.5 C 183.013,145.585 180.68,150.085 172.5,152C 169.5,152.667 166.5,152.667 163.5,152C 162.199,150.384 162.199,148.884 163.5,147.5C 163.237,150.734 164.737,152.068 168,151.5C 174.109,151.373 178.276,148.539 180.5,143C 179.852,141.56 179.519,140.06 179.5,138.5 Z"/></g>
<g><path style="opacity:1" fill="#65b64b" d="M 79.5,141.5 C 81.8194,148.636 82.1527,155.969 80.5,163.5C 79.1667,163.5 77.8333,163.5 76.5,163.5C 76.8097,157.242 76.4764,151.076 75.5,145C 72.8697,144.155 70.5364,144.655 68.5,146.5C 66.757,151.327 66.0903,156.327 66.5,161.5C 64.8333,161.5 63.1667,161.5 61.5,161.5C 61.5,159.167 61.5,156.833 61.5,154.5C 61.7204,149.566 62.387,144.733 63.5,140C 65.9063,139.221 67.573,140.054 68.5,142.5C 71.9373,140.202 75.6039,139.868 79.5,141.5 Z"/></g>
<g><path style="opacity:0.149" fill="#e4f1e1" d="M 122.5,144.5 C 122.56,143.957 122.893,143.624 123.5,143.5C 124.731,144.651 124.731,145.817 123.5,147C 121.866,147.494 120.199,147.66 118.5,147.5C 120.685,146.821 122.019,145.821 122.5,144.5 Z"/></g>
<g><path style="opacity:0.11" fill="#d3decf" d="M 87.5,144.5 C 87.3398,146.199 87.5065,147.866 88,149.5C 89.4813,150.471 90.3146,151.804 90.5,153.5C 88.5891,153.426 87.4224,152.426 87,150.5C 86.2109,148.288 86.3775,146.288 87.5,144.5 Z"/></g>
<g><path style="opacity:1" fill="#69b64f" d="M 167.5,132.5 C 163.839,132.35 162.839,133.85 164.5,137C 167.147,137.179 169.814,137.012 172.5,136.5C 175.109,136.441 177.443,137.108 179.5,138.5C 179.519,140.06 179.852,141.56 180.5,143C 178.276,148.539 174.109,151.373 168,151.5C 164.737,152.068 163.237,150.734 163.5,147.5C 166.978,147.816 170.312,147.316 173.5,146C 174.38,144.644 174.714,143.144 174.5,141.5C 170.154,141.666 165.821,141.499 161.5,141C 157.607,137.254 157.607,133.588 161.5,130C 165.208,127.868 169.208,127.035 173.5,127.5C 173.5,128.5 173.5,129.5 173.5,130.5C 171.214,130.595 169.214,131.262 167.5,132.5 Z"/></g>
<g><path style="opacity:0.009" fill="#d8e8d3" d="M 99.5,145.5 C 97.3352,145.116 95.6685,145.783 94.5,147.5C 97.935,148.367 101.268,149.534 104.5,151C 105.823,151.816 106.489,152.983 106.5,154.5C 102.759,151.472 98.4261,149.806 93.5,149.5C 93.3414,144.748 95.3414,143.414 99.5,145.5 Z"/></g>
<g><path style="opacity:1" fill="#68b64e" d="M 99.5,145.5 C 95.3414,143.414 93.3414,144.748 93.5,149.5C 98.4261,149.806 102.759,151.472 106.5,154.5C 107.019,158.453 105.686,161.453 102.5,163.5C 98.5633,163.793 94.73,163.46 91,162.5C 90.8333,162.167 90.6667,161.833 90.5,161.5C 93.6417,160.833 96.6417,160.166 99.5,159.5C 100.782,158.292 100.782,156.958 99.5,155.5C 96.6008,154.358 93.6008,153.692 90.5,153.5C 90.3146,151.804 89.4813,150.471 88,149.5C 87.5065,147.866 87.3398,146.199 87.5,144.5C 90.1273,141.523 93.4606,140.19 97.5,140.5C 101.941,139.534 104.275,141.2 104.5,145.5C 102.833,145.5 101.167,145.5 99.5,145.5 Z"/></g>
<g><path style="opacity:0.459" fill="#d1e1cc" d="M 25.5,143.5 C 27.336,146.524 28.6693,149.857 29.5,153.5C 28.1493,157.166 26.1493,157.5 23.5,154.5C 24.8333,154.5 26.1667,154.5 27.5,154.5C 26.8333,150.833 26.1667,147.167 25.5,143.5 Z"/></g>
<g><path style="opacity:0.094" fill="#c8dabf" d="M 55.5,139.5 C 58.743,143.179 59.0763,147.179 56.5,151.5C 55.7065,151.931 54.8732,152.265 54,152.5C 49.8858,151.285 45.7191,150.785 41.5,151C 44.5425,153.875 48.2092,155.208 52.5,155C 53.8333,156.667 53.8333,158.333 52.5,160C 46.361,161.451 40.861,160.284 36,156.5C 35.2086,155.255 34.7086,153.922 34.5,152.5C 38.7119,157.757 44.3785,160.09 51.5,159.5C 51.5,158.167 51.5,156.833 51.5,155.5C 48.4281,155.817 45.4281,155.484 42.5,154.5C 41.0499,153.15 40.3832,151.484 40.5,149.5C 45.8446,149.687 51.1779,150.02 56.5,150.5C 56.6773,146.766 56.3439,143.099 55.5,139.5 Z"/></g>
<g><path style="opacity:0.067" fill="#c9dcc1" d="M 154.5,139.5 C 159.672,150.49 156.339,157.156 144.5,159.5C 154.687,156.46 158.021,149.793 154.5,139.5 Z"/></g>
<g><path style="opacity:0.318" fill="#d6e6d1" d="M 145.5,152.5 C 145.389,153.117 145.056,153.617 144.5,154C 142.19,154.497 139.857,154.663 137.5,154.5C 137.366,156.292 137.699,157.958 138.5,159.5C 135.829,157.993 135.329,155.993 137,153.5C 139.719,152.556 142.552,152.223 145.5,152.5 Z"/></g>
<g><path style="opacity:0.169" fill="#bdccb8" d="M 106.5,154.5 C 108.503,159.085 107.169,162.419 102.5,164.5C 102.5,164.167 102.5,163.833 102.5,163.5C 105.686,161.453 107.019,158.453 106.5,154.5 Z"/></g>
<g><path style="opacity:0.204" fill="#d1e1cb" d="M 90.5,153.5 C 93.6008,153.692 96.6008,154.358 99.5,155.5C 100.782,156.958 100.782,158.292 99.5,159.5C 95.8333,159.5 92.1667,159.5 88.5,159.5C 88.3915,161.514 89.0582,163.18 90.5,164.5C 89.5041,164.586 88.6708,164.252 88,163.5C 87.2571,161.559 87.4238,159.726 88.5,158C 92.188,158.454 95.8547,158.287 99.5,157.5C 96.4083,156.145 93.4083,154.812 90.5,153.5 Z"/></g>
<g><path style="opacity:0.027" fill="#c1d9b8" d="M 130.5,142.5 C 132.184,147.388 133.184,152.555 133.5,158C 133.441,159.436 133.108,160.769 132.5,162C 126.361,163.04 120.027,163.373 113.5,163C 108.688,156.22 110.022,151.054 117.5,147.5C 116.207,149.296 114.707,150.963 113,152.5C 112.107,155.916 112.607,159.083 114.5,162C 119.437,163.369 123.604,162.203 127,158.5C 128.401,160.192 130.234,160.859 132.5,160.5C 131.76,154.51 131.094,148.51 130.5,142.5 Z M 123.5,151.5 C 124.494,152.999 124.494,154.666 123.5,156.5C 121.883,157.038 120.216,157.371 118.5,157.5C 118.749,154.256 120.416,152.256 123.5,151.5 Z"/></g>
<g><path style="opacity:0.059" fill="#c2dabb" d="M 123.5,151.5 C 120.416,152.256 118.749,154.256 118.5,157.5C 120.216,157.371 121.883,157.038 123.5,156.5C 121.989,158.441 119.989,158.941 117.5,158C 116.351,153.304 118.351,151.138 123.5,151.5 Z"/></g>
<g><path style="opacity:0.051" fill="#d8ead2" d="M 123.5,151.5 C 123.56,150.957 123.893,150.624 124.5,150.5C 125.949,152.912 125.616,154.912 123.5,156.5C 124.494,154.666 124.494,152.999 123.5,151.5 Z"/></g>
<g><path style="opacity:0.996" fill="#91c17c" d="M 99.5,159.5 C 96.6417,160.166 93.6417,160.833 90.5,161.5C 90.6667,161.833 90.8333,162.167 91,162.5C 94.73,163.46 98.5633,163.793 102.5,163.5C 102.5,163.833 102.5,164.167 102.5,164.5C 98.6011,165.791 94.6011,165.791 90.5,164.5C 89.0582,163.18 88.3915,161.514 88.5,159.5C 92.1667,159.5 95.8333,159.5 99.5,159.5 Z"/></g>
</svg>
